<?xml version="1.0" encoding="UTF-8"?>
<svg version="1.1" xmlns="http://www.w3.org/2000/svg" width="512" height="512">
<path d="M0 0 C0 87.45 0 174.9 0 265 C5.28 265 10.56 265 16 265 C16 177.55 16 90.1 16 0 C50.2375 -0.04125 84.475 -0.0825 119.75 -0.125 C135.98396973 -0.15231201 135.98396973 -0.15231201 152.54589844 -0.18017578 C165.73095703 -0.18920898 165.73095703 -0.18920898 171.89752197 -0.19088745 C176.21736696 -0.19275565 180.53716311 -0.20027008 184.85699463 -0.21115112 C190.3614779 -0.22483322 195.8658898 -0.228989 201.37038851 -0.22614455 C203.39411331 -0.22673965 205.41784051 -0.23072679 207.44155073 -0.23843026 C210.16862426 -0.24833169 212.89541803 -0.24599702 215.62249756 -0.24050903 C216.41993504 -0.24633436 217.21737251 -0.25215969 218.03897476 -0.25816154 C225.12170819 -0.21967359 225.12170819 -0.21967359 228 2 C229.81981367 4.99289369 230.25128451 7.23163252 230.25726891 10.71053219 C230.2637178 11.65941309 230.27016669 12.60829399 230.276811 13.58592886 C230.2721652 15.14500639 230.2721652 15.14500639 230.26742554 16.73558044 C230.27195665 17.842113 230.27648776 18.94864556 230.28115618 20.08870941 C230.29385261 23.80975129 230.29217643 27.53064779 230.29052734 31.25170898 C230.29650926 33.91410877 230.30325706 36.57649702 230.31088257 39.2388916 C230.32749865 45.72780513 230.33299236 52.21668232 230.33410732 58.70561533 C230.3350574 63.97912889 230.33916566 69.25263045 230.34550858 74.52614021 C230.36312173 89.47365559 230.37234719 104.42114224 230.37084763 119.36866807 C230.37076772 120.17456864 230.3706878 120.98046921 230.37060547 121.81079102 C230.37052371 122.61767406 230.37044195 123.42455711 230.37035771 124.25589115 C230.36954452 137.33732476 230.38869012 150.4186433 230.4168822 163.50004362 C230.44559344 176.92813998 230.45942351 190.35618018 230.45769465 203.78430802 C230.45703019 211.32475999 230.46254686 218.86509131 230.48405075 226.40551567 C230.50223933 232.82458382 230.50662906 239.2434766 230.4930319 245.66255932 C230.48649064 248.93820451 230.48858947 252.21344221 230.5037384 255.48906898 C230.51909501 259.03882847 230.50994532 262.58769664 230.49447632 266.13743591 C230.50476344 267.17459022 230.51505057 268.21174452 230.52564943 269.28032774 C230.48359989 273.63034268 230.40765891 276.28663654 228.21909523 280.11641026 C223.83117748 283.84091778 218.67655914 283.13698373 213.1650238 283.11352539 C211.81171615 283.11374868 211.81171615 283.11374868 210.43106896 283.11397648 C207.40120662 283.11328079 204.37140456 283.10543288 201.34155273 283.09765625 C199.17164647 283.09573746 197.00173975 283.09427348 194.83183289 283.0932312 C190.15448122 283.0900668 185.47714753 283.08379281 180.79980278 283.07516479 C173.3991751 283.06165434 165.99855344 283.05575032 158.59791565 283.05102539 C142.21005366 283.0394426 125.82220539 283.0186961 109.43435383 282.99739647 C93.15544038 282.97625624 76.87653252 282.95695663 60.59760815 282.94658184 C53.24632684 282.94160793 45.89507326 282.93175984 38.5438031 282.91815186 C33.95991305 282.91067058 29.37602676 282.90737215 24.79213142 282.9051857 C22.6730082 282.90331997 20.55388564 282.89973162 18.43476868 282.89425278 C0.22318625 281.46002392 0.22318625 281.46002392 -16 287 C-18.5328341 291.21838561 -18.70365608 295.19454385 -18 300 C-15.84328919 303.62019315 -13.83784968 305.39243829 -10 307 C-7.98783723 307.29684175 -7.98783723 307.29684175 -5.86451721 307.2561264 C-5.04390525 307.2623585 -4.22329329 307.26859059 -3.37781429 307.27501154 C-2.48171224 307.27171257 -1.58561018 307.26841359 -0.66235352 307.26501465 C0.29379317 307.26939592 1.24993986 307.27377719 2.23506069 307.27829123 C5.44711895 307.29063808 8.65901447 307.28880129 11.87109375 307.28710938 C14.17058556 307.29313181 16.47007516 307.30005559 18.76956177 307.30781555 C23.72521615 307.32271916 28.68083012 307.3314574 33.63650513 307.33552551 C41.46791633 307.3422283 49.29924088 307.36396955 57.13061523 307.38806152 C68.10627306 307.4207073 79.08193096 307.44726564 90.05761719 307.46826172 C91.1023561 307.47026421 91.1023561 307.47026421 92.16820085 307.47230715 C97.11213354 307.48173492 102.0560667 307.49089821 107 307.5 C112.64746129 307.51039699 118.29492232 307.5209136 123.94238281 307.53173828 C124.9858495 307.53373439 124.9858495 307.53373439 126.05039632 307.53577083 C137.64449188 307.55819144 149.23855367 307.58846344 160.83261585 307.62413073 C168.62238308 307.64752123 176.41209013 307.66123078 184.20188904 307.66762543 C189.04221903 307.67355084 193.88250003 307.68763563 198.72280502 307.70396996 C200.9722518 307.70986132 203.22171052 307.71231501 205.4711647 307.71113014 C208.53499922 307.70997611 211.59855657 307.72094637 214.66235352 307.73498535 C215.55845557 307.73168638 216.45455763 307.7283874 217.37781429 307.72498846 C218.19842626 307.73122056 219.01903822 307.73745265 219.86451721 307.7438736 C220.92524114 307.74566486 220.92524114 307.74566486 222.00739384 307.74749231 C225.15968114 308.14695749 227.35747664 309.17389854 229.3125 311.6875 C230.31858949 315.07161918 229.80442399 317.59666774 229 321 C227.42114034 323.05938216 226.30857577 323.84571211 224 325 C222.41612866 325.09260448 220.82836609 325.1219246 219.24179077 325.12025452 C218.23775711 325.12162918 217.23372345 325.12300385 216.19926453 325.12442017 C215.09371719 325.12082489 213.98816986 325.11722961 212.84912109 325.11352539 C211.68815414 325.11367142 210.52718719 325.11381744 209.33103943 325.1139679 C205.4784867 325.11326903 201.62598182 325.10547781 197.7734375 325.09765625 C195.10828571 325.09579198 192.44313659 325.09431895 189.77798462 325.09336853 C183.47045915 325.09025745 177.16295096 325.08204706 170.85543311 325.07201904 C163.67535645 325.06085098 156.49527898 325.0553457 149.3151958 325.05032361 C134.54345502 325.03986427 119.77172781 325.02226914 105 325 C105.06981334 330.27997113 105.15820544 335.55921928 105.26245117 340.83862305 C105.29532209 342.6276026 105.32346615 344.41667647 105.34643555 346.20581055 C105.66795405 370.60701278 110.65495653 391.42538138 127.59765625 409.8203125 C143.24845076 424.89486274 163.03562191 431.53379406 184.54296875 431.21484375 C204.31523183 430.53157817 222.41990839 421.08549955 236 407 C250.45085545 390.32773473 255.65144309 371.28473582 255.49829102 349.64233398 C255.50212721 348.07811977 255.50775722 346.51390911 255.51501465 344.94970703 C255.52684747 341.61645254 255.52656856 338.28351373 255.51642036 334.95025444 C255.50068024 329.66456433 255.51465987 324.37918974 255.53245544 319.09352112 C255.56310286 308.82599853 255.56478334 298.55857551 255.56280518 288.29101562 C255.56140715 275.21893567 255.57197725 262.14693231 255.6113829 249.07490784 C255.62619403 243.83544356 255.62613943 238.5962661 255.61390507 233.35679805 C255.6091508 230.08267508 255.61677969 226.80865902 255.62744904 223.53455353 C255.62982821 222.03309864 255.62721716 220.53162484 255.61884117 219.03019142 C255.51142012 198.52587914 259.94483391 181.21281805 273 165 C273.46921875 164.36707031 273.9384375 163.73414063 274.421875 163.08203125 C283.65442526 151.21548871 299.74006189 142.59852994 314.3203125 139.4375 C335.88414529 136.87364727 355.89395274 139.37916729 374.0390625 152.13671875 C390.28373444 164.95792677 400.59704053 181.46455809 404 202 C404.25951966 205.6792302 404.25391576 209.34048305 404.22705078 213.02758789 C404.22734283 214.09204132 404.22763489 215.15649475 404.22793579 216.25320435 C404.2265515 219.74310693 404.21103279 223.23279133 404.1953125 226.72265625 C404.19157917 229.15359887 404.18873371 231.584543 404.18673706 234.01548767 C404.17912584 240.39244796 404.15949894 246.76931616 404.1373291 253.14624023 C404.11681651 259.66193395 404.10772378 266.17764263 404.09765625 272.69335938 C404.07625066 285.46227872 404.04253329 298.23113444 404 311 C404.61859894 311.06416611 405.23719788 311.12833221 405.87454224 311.19444275 C406.68567474 311.28101639 407.49680725 311.36759003 408.33251953 311.45678711 C409.13674347 311.54157822 409.94096741 311.62636932 410.76956177 311.71372986 C422.81645345 313.25991273 433.28659313 322.26900781 440.92578125 331.15625 C448.03600771 340.90435709 452.3066563 351.74626302 452.29052734 363.87792969 C452.29724457 364.62060089 452.30396179 365.36327209 452.31088257 366.12844849 C452.32972601 368.5596606 452.33377996 370.9905946 452.3359375 373.421875 C452.34237554 375.13047392 452.34910463 376.83907177 452.35610962 378.54766846 C452.36804876 382.12164868 452.37179398 385.69553251 452.37060547 389.26953125 C452.37040262 393.819649 452.39768455 398.36913982 452.43214989 402.91910934 C452.45453339 406.44702926 452.45843951 409.97480111 452.45738602 413.50278473 C452.45972556 415.1787049 452.46845474 416.8546302 452.48405075 418.53047943 C452.62062628 434.72297812 449.16916077 449.98378244 437.8125 462.31640625 C425.41081551 473.83607439 410.87481172 479.79420961 394 480 C379.32839339 479.25482811 366.7038476 474.0674026 356 464 C355.06607422 463.14535156 355.06607422 463.14535156 354.11328125 462.2734375 C350.01718061 458.09449438 347.34394379 453.28636565 344.6875 448.125 C344.34960449 447.47724609 344.01170898 446.82949219 343.66357422 446.16210938 C338.63978483 435.9161227 338.67517083 425.21004832 338.6640625 414.01953125 C338.65761692 412.47791934 338.65088733 410.9363086 338.64389038 409.3946991 C338.63197628 406.17480643 338.62820335 402.95502055 338.62939453 399.73510742 C338.62959713 395.65164983 338.60232974 391.56889272 338.56785011 387.48560047 C338.54537871 384.30326831 338.54156314 381.1210992 338.54261398 377.93869591 C338.54028697 376.43550905 338.5316317 374.93231561 338.51594925 373.42920876 C338.37036878 358.03299431 341.10251656 344.97221589 350 332 C350.43828125 331.34644531 350.8765625 330.69289063 351.328125 330.01953125 C358.49771024 320.5824567 370.78980658 314.03101697 382 311 C383.66639281 310.96978752 385.33369857 310.96511006 387 311 C386.93863159 297.38643334 386.8614123 283.77305589 386.76428509 270.15969467 C386.71966987 263.83759602 386.68039423 257.5155605 386.65356445 251.19335938 C386.62744328 245.08538082 386.58697858 238.97764637 386.53681374 232.86981964 C386.52020454 230.54642029 386.50865341 228.22297877 386.50238609 225.8995285 C386.44239716 205.69383222 385.09686037 188.61478025 370.34765625 173.25 C358.03803394 161.45242521 344.67364794 156.54278416 327.79321289 156.56616211 C313.52278717 156.8808453 300.73204673 162.55642581 290.25 172.25 C276.68947601 186.78610125 273.69273298 203.45905807 273.72875977 222.5847168 C273.72436464 224.13819143 273.71905965 225.69166372 273.71292114 227.24513245 C273.70147906 230.57349268 273.69596599 233.90178973 273.69503975 237.2301693 C273.69308615 242.50692307 273.67496152 247.7835478 273.65428162 253.06025696 C273.6052647 266.16780036 273.57427314 279.27537864 273.55297852 292.38299561 C273.53639964 302.57209345 273.51342929 312.76107972 273.46995777 322.9501031 C273.44834102 328.18116366 273.44010852 333.41201143 273.44235051 338.64311349 C273.44066785 341.91616652 273.42652284 345.18908394 273.40913773 348.46208763 C273.40360198 349.96352642 273.40299301 351.46499409 273.40807533 352.96643448 C273.48776352 379.29757661 264.94308594 403.22933672 246.64160156 422.36572266 C234.22173512 434.73017625 218.9651949 442.78090703 202 447 C201.15953125 447.22429687 200.3190625 447.44859375 199.453125 447.6796875 C175.13278925 453.19330399 149.87726417 446.77165969 129 434 C125.45622103 431.54179691 122.20939563 428.87879228 119 426 C118.09378906 425.18789063 117.18757812 424.37578125 116.25390625 423.5390625 C99.81716951 407.99141415 88.79463432 385.51732495 87.91259766 362.74328613 C87.88532657 360.31781582 87.88732676 357.89432393 87.90234375 355.46875 C87.9037587 354.59222778 87.90517365 353.71570557 87.90663147 352.81262207 C87.91218232 350.04171179 87.92472539 347.27088543 87.9375 344.5 C87.94252136 342.60937618 87.94708315 340.71875107 87.95117188 338.828125 C87.9621356 334.21871817 87.97936575 329.60937327 88 325 C86.15742867 325.01332367 86.15742867 325.01332367 84.27763367 325.0269165 C72.67007361 325.10819767 61.06257173 325.16805908 49.45479107 325.20724869 C43.48788731 325.22807417 37.52121433 325.25629982 31.55444336 325.30175781 C25.79022279 325.34539509 20.02622343 325.36917497 14.26185036 325.37950897 C12.06873915 325.38686828 9.87563929 325.40123895 7.68262291 325.42292023 C-19.05996897 325.67666385 -19.05996897 325.67666385 -28.5 316.78125 C-33.01419011 311.42064924 -36.11587835 305.32269276 -36.1398077 298.27589512 C-36.14549894 297.2984882 -36.15119018 296.32108129 -36.15705389 295.31405598 C-36.1588237 293.69940721 -36.1588237 293.69940721 -36.16062927 292.05213928 C-36.16571709 290.91056458 -36.17080491 289.76898989 -36.17604691 288.59282202 C-36.18905598 285.41892308 -36.19753748 282.24504942 -36.2040199 279.07113159 C-36.21039093 276.34986605 -36.22046115 273.62861936 -36.23058056 270.90736557 C-36.26391003 261.93983225 -36.28542962 252.97228746 -36.30378041 244.00471249 C-36.30857615 241.66872996 -36.3135594 239.3327479 -36.31858563 236.99676585 C-36.34956314 222.48512003 -36.37624406 207.9734702 -36.39300442 193.46180058 C-36.39695382 190.10010331 -36.40095682 186.73840611 -36.4050293 183.37670898 C-36.40603766 182.54119046 -36.40704602 181.70567194 -36.40808494 180.84483468 C-36.42507746 167.3218346 -36.46616989 153.79901797 -36.51705229 140.27610738 C-36.56888586 126.3858426 -36.59795444 112.495672 -36.6052013 98.60531133 C-36.60985692 90.80911526 -36.62453768 83.01321935 -36.6649456 75.21711922 C-36.69933284 68.57457786 -36.71315013 61.93239083 -36.70052146 55.2897656 C-36.69471394 51.90358269 -36.70172663 48.51875168 -36.7286911 45.13258171 C-36.75643123 41.45134527 -36.74683464 37.77196698 -36.72825623 34.0907135 C-36.74505115 33.03435749 -36.76184608 31.97800147 -36.77914995 30.88963467 C-36.66324444 21.65559698 -33.47636371 13.08920451 -26.8125 6.5 C-18.21504119 0.1273222 -10.73355734 0 0 0 Z M45 61 C43.9213446 63.87641441 43.75399292 65.28247935 44.75 68.1875 C46.03583873 70.29113844 46.03583873 70.29113844 49 72 C51.44542157 72.31000079 51.44542157 72.31000079 54.22445679 72.27415466 C55.84794289 72.28911736 55.84794289 72.28911736 57.50422668 72.30438232 C58.6918309 72.305047 59.87943512 72.30571167 61.10302734 72.30639648 C62.35364456 72.31472 63.60426178 72.32304352 64.89277649 72.33161926 C68.32471172 72.35161017 71.75640415 72.36236421 75.1883769 72.36744571 C77.3327347 72.37108831 79.47706911 72.37732786 81.621418 72.3844471 C89.10309119 72.40894464 96.58469501 72.42199412 104.06640625 72.42553711 C111.03921793 72.42917258 118.01158949 72.45906745 124.98426664 72.50094169 C130.97163221 72.53563747 136.95885188 72.55108542 142.94631732 72.55178314 C146.52198608 72.55257623 150.09720659 72.56132807 153.67277145 72.58978081 C157.66141542 72.62081068 161.64942696 72.61190512 165.63818359 72.59936523 C167.41351723 72.62161667 167.41351723 72.62161667 169.22471619 72.64431763 C175.77320808 72.76197124 175.77320808 72.76197124 181.26870728 69.68910217 C183.31791273 67.02489302 183.31791273 67.02489302 183.0625 63.375 C181.8800056 59.61884132 181.30869623 58.91822373 178 57 C175.47433877 56.54920919 175.47433877 56.54920919 172.69325256 56.61231995 C171.61796799 56.60241531 170.54268341 56.59251068 169.43481445 56.58230591 C168.26015625 56.58680756 167.08549805 56.5913092 165.87524414 56.59594727 C164.01372963 56.58565239 164.01372963 56.58565239 162.11460876 56.57514954 C158.71360704 56.55998184 155.31315328 56.55838814 151.91215825 56.56409192 C149.07167975 56.56718256 146.23125087 56.56109269 143.39077944 56.55505317 C136.68894443 56.54100627 129.98723689 56.54257041 123.28540039 56.55395508 C116.37452904 56.56543552 109.46404578 56.55136261 102.55322558 56.5245586 C96.6167824 56.50239699 90.680461 56.49576526 84.74397939 56.50163502 C81.19971419 56.50500487 77.65569774 56.50258806 74.11146736 56.48538399 C70.15887378 56.46703507 66.20675693 56.48110681 62.25415039 56.49829102 C61.08151642 56.48862305 59.90888245 56.47895508 58.70071411 56.46899414 C50.96678321 56.42711246 50.96678321 56.42711246 45 61 Z M72.56506348 100.84484863 C70.77512515 102.972283 70.77512515 102.972283 70.5 106 C71.10850376 109.65102254 72.10380874 110.76579531 75 113 C78.44375886 114.14791962 81.1296349 114.14107034 84.76293945 114.16113281 C85.7878952 114.16858017 85.7878952 114.16858017 86.83355713 114.17617798 C89.09347544 114.19077904 91.35332353 114.19759852 93.61328125 114.203125 C95.18645733 114.20887862 96.7596334 114.21463633 98.33280945 114.22039795 C101.63227667 114.23090241 104.93171958 114.23674855 108.23120117 114.24023438 C112.45124127 114.24571468 116.670958 114.26973492 120.8908968 114.29820633 C124.14148384 114.31686638 127.39199355 114.32204012 130.64262962 114.32357025 C132.19790602 114.32659026 133.75318126 114.33459677 135.30840492 114.34775543 C137.48880955 114.36488522 139.66843162 114.36291917 141.84887695 114.35644531 C143.08781204 114.36009094 144.32674713 114.36373657 145.60322571 114.36749268 C149.36581031 113.96042345 151.78629039 112.96925089 155 111 C156.42041821 108.15916359 156.31452272 106.14522722 156 103 C154.50412468 100.68933766 154.50412468 100.68933766 152 99 C149.37353375 98.60499056 147.16506132 98.45204087 144.54101562 98.48242188 C143.79583176 98.4754126 143.05064789 98.46840332 142.28288269 98.46118164 C139.82362424 98.44359958 137.36551982 98.45522426 134.90625 98.46875 C133.19518819 98.46605512 131.48412786 98.46217274 129.77307129 98.45715332 C126.18857225 98.45125802 122.60447216 98.45982201 119.02001953 98.47851562 C114.42633561 98.50130549 109.83358646 98.48818254 105.23993683 98.46422577 C101.70714276 98.44976848 98.17457016 98.45437339 94.64176941 98.46473694 C92.94809356 98.46740443 91.25439757 98.46413365 89.56074524 98.45481873 C87.19295024 98.44465388 84.82666683 98.46015121 82.45898438 98.48242188 C81.75964279 98.47432495 81.06030121 98.46622803 80.33976746 98.45788574 C76.99927197 98.51606669 75.25912631 98.80367093 72.56506348 100.84484863 Z M390 343 C386.96802604 347.54796094 387.63157361 352.02408022 387.625 357.375 C387.60050781 358.4165625 387.57601563 359.458125 387.55078125 360.53125 C387.5010557 366.65040784 387.5010557 366.65040784 389.90625 372.1640625 C392.58615857 374.56086035 392.58615857 374.56086035 396 375 C400.28611247 373.40485216 400.28611247 373.40485216 403 370 C403.29654768 365.88105496 403.27802033 361.75336582 403.3125 357.625 C403.34150391 356.47515625 403.37050781 355.3253125 403.40039062 354.140625 C403.40876953 353.03460938 403.41714844 351.92859375 403.42578125 350.7890625 C403.44036377 349.77537598 403.45494629 348.76168945 403.4699707 347.71728516 C402.8775348 344.2919285 401.66213631 343.15664382 399 341 C395.20434539 339.16339293 393.23434715 340.61679684 390 343 Z " fill="#000000" transform="translate(44,17)"/>
</svg>
